<mxfile host="app.diagrams.net" modified="2022-09-15T10:56:00.731Z" agent="5.0 (Macintosh; Intel Mac OS X 10_15_7) AppleWebKit/537.36 (KHTML, like Gecko) Chrome/105.0.0.0 Safari/537.36" etag="EuaoULeyAu1dYABlcWj5" version="20.3.0" type="github">
  <diagram id="d4W6UCmJVO9TeJFTkR9j" name="第 1 页">
    <mxGraphModel dx="865" dy="556" grid="1" gridSize="10" guides="1" tooltips="1" connect="1" arrows="1" fold="1" page="1" pageScale="1" pageWidth="827" pageHeight="1169" math="0" shadow="0">
      <root>
        <mxCell id="0" />
        <mxCell id="1" parent="0" />
        <mxCell id="ymeIpKLwmaZPsYRKqCFJ-9" style="edgeStyle=orthogonalEdgeStyle;rounded=0;orthogonalLoop=1;jettySize=auto;html=1;entryX=0.5;entryY=0;entryDx=0;entryDy=0;exitX=0.5;exitY=1;exitDx=0;exitDy=0;" edge="1" parent="1" source="ymeIpKLwmaZPsYRKqCFJ-1" target="ymeIpKLwmaZPsYRKqCFJ-2">
          <mxGeometry relative="1" as="geometry">
            <Array as="points">
              <mxPoint x="510" y="350" />
              <mxPoint x="230" y="350" />
            </Array>
          </mxGeometry>
        </mxCell>
        <mxCell id="ymeIpKLwmaZPsYRKqCFJ-10" value="dependency" style="edgeLabel;html=1;align=center;verticalAlign=middle;resizable=0;points=[];" vertex="1" connectable="0" parent="ymeIpKLwmaZPsYRKqCFJ-9">
          <mxGeometry x="0.1077" y="1" relative="1" as="geometry">
            <mxPoint as="offset" />
          </mxGeometry>
        </mxCell>
        <mxCell id="ymeIpKLwmaZPsYRKqCFJ-11" style="edgeStyle=orthogonalEdgeStyle;rounded=0;orthogonalLoop=1;jettySize=auto;html=1;entryX=0.5;entryY=0;entryDx=0;entryDy=0;" edge="1" parent="1" source="ymeIpKLwmaZPsYRKqCFJ-1" target="ymeIpKLwmaZPsYRKqCFJ-6">
          <mxGeometry relative="1" as="geometry">
            <Array as="points">
              <mxPoint x="510" y="350" />
              <mxPoint x="780" y="350" />
            </Array>
          </mxGeometry>
        </mxCell>
        <mxCell id="ymeIpKLwmaZPsYRKqCFJ-1" value="Jar / War" style="rounded=0;whiteSpace=wrap;html=1;fillColor=#fff2cc;strokeColor=#d6b656;" vertex="1" parent="1">
          <mxGeometry x="450" y="230" width="120" height="60" as="geometry" />
        </mxCell>
        <mxCell id="ymeIpKLwmaZPsYRKqCFJ-4" style="edgeStyle=orthogonalEdgeStyle;rounded=0;orthogonalLoop=1;jettySize=auto;html=1;entryX=0;entryY=0.5;entryDx=0;entryDy=0;" edge="1" parent="1" source="ymeIpKLwmaZPsYRKqCFJ-2" target="ymeIpKLwmaZPsYRKqCFJ-3">
          <mxGeometry relative="1" as="geometry" />
        </mxCell>
        <mxCell id="ymeIpKLwmaZPsYRKqCFJ-5" value="dependency" style="edgeLabel;html=1;align=center;verticalAlign=middle;resizable=0;points=[];" vertex="1" connectable="0" parent="ymeIpKLwmaZPsYRKqCFJ-4">
          <mxGeometry x="-0.2625" y="4" relative="1" as="geometry">
            <mxPoint x="11" y="4" as="offset" />
          </mxGeometry>
        </mxCell>
        <mxCell id="ymeIpKLwmaZPsYRKqCFJ-2" value="A" style="rounded=0;whiteSpace=wrap;html=1;" vertex="1" parent="1">
          <mxGeometry x="170" y="400" width="120" height="60" as="geometry" />
        </mxCell>
        <mxCell id="ymeIpKLwmaZPsYRKqCFJ-3" value="B" style="rounded=0;whiteSpace=wrap;html=1;" vertex="1" parent="1">
          <mxGeometry x="450" y="400" width="120" height="60" as="geometry" />
        </mxCell>
        <mxCell id="ymeIpKLwmaZPsYRKqCFJ-7" style="edgeStyle=orthogonalEdgeStyle;rounded=0;orthogonalLoop=1;jettySize=auto;html=1;entryX=1;entryY=0.5;entryDx=0;entryDy=0;" edge="1" parent="1" source="ymeIpKLwmaZPsYRKqCFJ-6" target="ymeIpKLwmaZPsYRKqCFJ-3">
          <mxGeometry relative="1" as="geometry" />
        </mxCell>
        <mxCell id="ymeIpKLwmaZPsYRKqCFJ-8" value="dependency&amp;nbsp; &amp;amp;&amp;nbsp; impl" style="edgeLabel;html=1;align=center;verticalAlign=middle;resizable=0;points=[];" vertex="1" connectable="0" parent="ymeIpKLwmaZPsYRKqCFJ-7">
          <mxGeometry x="-0.0981" relative="1" as="geometry">
            <mxPoint as="offset" />
          </mxGeometry>
        </mxCell>
        <mxCell id="ymeIpKLwmaZPsYRKqCFJ-6" value="B-impl" style="rounded=0;whiteSpace=wrap;html=1;" vertex="1" parent="1">
          <mxGeometry x="720" y="400" width="120" height="60" as="geometry" />
        </mxCell>
      </root>
    </mxGraphModel>
  </diagram>
</mxfile>
